<?xml version="1.0" encoding="UTF-8"?>
<svg id="Capa_1" data-name="Capa 1" xmlns="http://www.w3.org/2000/svg" viewBox="0 0 1007.47 787.89">
  <defs>
    <style>
      .cls-1 {
        fill: #1d1d1b;
      }
    </style>
  </defs>
  <g>
    <path d="M653.84,339.15c.02,24.23-.12,48.47.15,72.7.12,10.95-4.43,18.51-13.86,23.91-36.19,20.71-72.32,41.54-108.36,62.52-11.18,6.51-21.79,6.4-32.98-.07-42.94-24.86-86.01-49.51-129.07-74.18-8.93-5.11-13.12-12.49-13.08-22.89.17-35.65,0-71.3,0-106.95,0-11.87,6.28-15.46,16.68-9.49,56.98,32.7,114.02,65.29,170.81,98.31,11.35,6.6,21.4,6.94,32.65.06,17.48-10.7,35.47-20.57,53.2-30.85,7.43-4.31,7.43-7.36-.04-11.66-29.07-16.75-58-33.73-87.34-50-11.74-6.51-17.1-15.14-16.7-28.69.64-22.12.09-44.27.13-66.4.02-11.34,6.54-15.2,16.34-9.59,32.75,18.75,65.42,37.65,98.19,56.37,8.95,5.12,13.29,12.48,13.23,22.83-.13,24.7,0,49.4.02,74.1Z"/>
    <path d="M356.8,163.96c-.02-24.23.12-48.47-.15-72.7-.12-10.95,4.43-18.51,13.86-23.91,36.19-20.71,72.32-41.54,108.36-62.52,11.18-6.51,21.79-6.4,32.98.07,42.94,24.86,86.01,49.51,129.07,74.18,8.93,5.11,13.12,12.49,13.08,22.89-.17,35.65,0,71.3,0,106.95,0,11.87-6.28,15.46-16.68,9.49-56.98-32.7-114.02-65.29-170.81-98.31-11.35-6.6-21.4-6.94-32.65-.06-17.48,10.7-35.47,20.57-53.2,30.85-7.43,4.31-7.43,7.36.04,11.66,29.07,16.75,58,33.73,87.34,50,11.74,6.51,17.1,15.14,16.7,28.69-.64,22.12-.09,44.27-.13,66.4-.02,11.34-6.54,15.2-16.34,9.59-32.75-18.75-65.42-37.65-98.19-56.37-8.95-5.12-13.29-12.48-13.23-22.83.13-24.7,0-49.4-.02-74.1Z"/>
  </g>
  <g>
    <path class="cls-1" d="M54.68,669.6c-8.33,0-15.84-1.39-22.54-4.19-6.7-2.79-12.44-6.63-17.21-11.5-4.77-4.87-8.45-10.53-11.04-16.98-2.59-6.45-3.88-13.33-3.88-20.64s1.29-14.19,3.88-20.64c2.59-6.45,6.27-12.11,11.04-16.98,4.77-4.87,10.51-8.71,17.21-11.5,6.7-2.79,14.22-4.19,22.54-4.19h16.6v19.19h-16.15c-4.87,0-9.34.86-13.4,2.59-4.06,1.73-7.59,4.14-10.59,7.24-3,3.1-5.31,6.7-6.93,10.81-1.62,4.11-2.44,8.61-2.44,13.48s.81,9.39,2.44,13.56c1.62,4.17,3.93,7.77,6.93,10.82,2.99,3.05,6.52,5.43,10.59,7.16,4.06,1.73,8.53,2.59,13.4,2.59h16.15v19.19h-16.6Z"/>
    <path class="cls-1" d="M126.43,669.6c-8.84,0-16.53-1.7-23.08-5.1-6.55-3.4-11.63-8.05-15.23-13.94-3.61-5.89-5.41-12.49-5.41-19.8,0-8.22,1.68-15.38,5.03-21.48,3.35-6.09,7.92-10.82,13.71-14.17,5.79-3.35,12.34-5.03,19.65-5.03,8.73,0,15.82,1.83,21.25,5.48,5.43,3.66,9.42,8.56,11.96,14.7,2.54,6.14,3.81,12.97,3.81,20.49,0,1.02-.05,2.21-.15,3.58-.1,1.37-.25,2.41-.46,3.12h-52.55c.81,3.15,2.21,5.79,4.19,7.92s4.47,3.73,7.46,4.8c2.99,1.07,6.37,1.6,10.13,1.6h21.63v17.82h-21.93ZM104.8,623.45h32.45c-.2-1.93-.56-3.73-1.07-5.41-.51-1.68-1.22-3.17-2.13-4.49-.91-1.32-1.98-2.44-3.2-3.35s-2.64-1.62-4.27-2.13c-1.62-.51-3.4-.76-5.33-.76-2.54,0-4.8.46-6.78,1.37-1.98.91-3.63,2.13-4.95,3.65-1.32,1.52-2.36,3.25-3.12,5.18-.76,1.93-1.29,3.91-1.6,5.94Z"/>
    <path class="cls-1" d="M172.89,669.6v-44.63c0-6.4,1.5-12.24,4.49-17.52,2.99-5.28,7.34-9.49,13.02-12.64,5.69-3.15,12.49-4.72,20.41-4.72s14.85,1.58,20.49,4.72c5.64,3.15,9.95,7.36,12.95,12.64,2.99,5.28,4.49,11.12,4.49,17.52v44.63h-20.87v-44.63c0-3.15-.76-6.02-2.29-8.61-1.52-2.59-3.58-4.65-6.17-6.17-2.59-1.52-5.46-2.29-8.61-2.29s-6.02.76-8.61,2.29-4.65,3.58-6.17,6.17c-1.52,2.59-2.29,5.46-2.29,8.61v44.63h-20.87Z"/>
    <path class="cls-1" d="M260.17,609.74v-17.82h55.9v17.82h-55.9ZM295.51,669.6c-6.91,0-12.31-1.98-16.22-5.94-3.91-3.96-5.86-9.34-5.86-16.15v-75.09h20.87v74.49c0,1.32.48,2.46,1.45,3.43.96.97,2.11,1.45,3.43,1.45h16.91v17.82h-20.56Z"/>
    <path class="cls-1" d="M331.3,669.6v-55.6c0-6.9,1.95-12.31,5.86-16.22,3.91-3.91,9.32-5.86,16.22-5.86h21.48v17.82h-17.82c-1.32,0-2.46.46-3.43,1.37-.97.92-1.45,2.08-1.45,3.5v54.99h-20.87Z"/>
    <path class="cls-1" d="M416.91,671.43c-7.11,0-13.3-1.83-18.58-5.48-5.28-3.66-9.37-8.56-12.26-14.7-2.89-6.14-4.34-12.92-4.34-20.34s1.65-14.52,4.95-20.72c3.3-6.19,8.05-11.09,14.24-14.7,6.19-3.6,13.61-5.41,22.24-5.41s16.09,1.83,22.09,5.48c5.99,3.66,10.56,8.58,13.71,14.78,3.15,6.19,4.72,13.05,4.72,20.56v38.69h-20.87v-12.95h-.3c-1.52,2.74-3.43,5.23-5.71,7.46-2.29,2.24-5.05,4.01-8.3,5.33-3.25,1.32-7.11,1.98-11.58,1.98ZM422.85,653.61c4.06,0,7.56-1.01,10.51-3.05,2.94-2.03,5.2-4.8,6.78-8.3,1.57-3.5,2.36-7.39,2.36-11.65s-.79-8.1-2.36-11.5c-1.58-3.4-3.83-6.12-6.78-8.15-2.95-2.03-6.45-3.05-10.51-3.05s-7.74,1.02-10.74,3.05c-3,2.03-5.28,4.75-6.85,8.15-1.58,3.4-2.36,7.24-2.36,11.5s.79,8.15,2.36,11.65c1.57,3.5,3.86,6.27,6.85,8.3,2.99,2.03,6.57,3.05,10.74,3.05Z"/>
    <path class="cls-1" d="M483.47,669.6v-111.2h20.87v111.2h-20.87Z"/>
    <path class="cls-1" d="M565.12,669.6v-19.19h45.7c2.23,0,4.27-.56,6.09-1.68,1.83-1.12,3.3-2.61,4.42-4.49,1.12-1.88,1.68-3.93,1.68-6.17s-.56-4.44-1.68-6.32c-1.12-1.88-2.59-3.38-4.42-4.49-1.83-1.12-3.86-1.68-6.09-1.68h-17.82c-5.99,0-11.42-1.22-16.3-3.66-4.87-2.44-8.76-5.96-11.65-10.59-2.89-4.62-4.34-10.18-4.34-16.68s1.37-11.96,4.11-16.68c2.74-4.72,6.45-8.4,11.12-11.05,4.67-2.64,9.85-3.96,15.54-3.96h46.31v19.19h-44.17c-2.03,0-3.91.53-5.64,1.6-1.73,1.07-3.07,2.46-4.04,4.19-.97,1.73-1.45,3.65-1.45,5.79s.48,4.06,1.45,5.79c.96,1.73,2.31,3.1,4.04,4.11,1.73,1.02,3.6,1.52,5.64,1.52h18.43c6.6,0,12.34,1.27,17.21,3.81,4.87,2.54,8.66,6.09,11.35,10.66,2.69,4.57,4.04,9.9,4.04,16,0,7.21-1.4,13.35-4.19,18.43-2.79,5.08-6.55,8.94-11.27,11.58-4.72,2.64-9.93,3.96-15.61,3.96h-48.44Z"/>
    <path class="cls-1" d="M697.79,671.43c-7.92,0-14.73-1.58-20.41-4.72-5.69-3.15-10.03-7.36-13.02-12.64-3-5.28-4.49-11.12-4.49-17.52v-44.63h20.87v44.63c0,3.15.76,6.02,2.29,8.61,1.52,2.59,3.58,4.64,6.17,6.17,2.59,1.52,5.46,2.29,8.61,2.29s6.02-.76,8.61-2.29c2.59-1.52,4.65-3.58,6.17-6.17,1.52-2.59,2.29-5.46,2.29-8.61v-44.63h20.87v44.63c0,6.4-1.5,12.24-4.49,17.52-3,5.28-7.31,9.5-12.95,12.64-5.64,3.15-12.47,4.72-20.49,4.72Z"/>
    <path class="cls-1" d="M766.03,582.62c-3.56,0-6.63-1.29-9.22-3.88-2.59-2.59-3.88-5.66-3.88-9.21s1.29-6.63,3.88-9.22c2.59-2.59,5.66-3.88,9.22-3.88s6.63,1.3,9.22,3.88c2.59,2.59,3.88,5.66,3.88,9.22s-1.29,6.63-3.88,9.21c-2.59,2.59-5.66,3.88-9.22,3.88ZM755.52,669.6v-77.69h21.02v77.69h-21.02Z"/>
    <path class="cls-1" d="M787.82,609.74v-17.82h55.9v17.82h-55.9ZM823.15,669.6c-6.91,0-12.31-1.98-16.22-5.94-3.91-3.96-5.86-9.34-5.86-16.15v-75.09h20.87v74.49c0,1.32.48,2.46,1.45,3.43.96.97,2.11,1.45,3.43,1.45h16.91v17.82h-20.56Z"/>
    <path class="cls-1" d="M895.81,669.6c-8.84,0-16.53-1.7-23.08-5.1-6.55-3.4-11.63-8.05-15.23-13.94-3.61-5.89-5.41-12.49-5.41-19.8,0-8.22,1.67-15.38,5.02-21.48s7.92-10.82,13.71-14.17c5.79-3.35,12.34-5.03,19.65-5.03,8.73,0,15.82,1.83,21.25,5.48,5.43,3.66,9.42,8.56,11.96,14.7,2.54,6.14,3.81,12.97,3.81,20.49,0,1.02-.05,2.21-.15,3.58s-.25,2.41-.46,3.12h-52.55c.81,3.15,2.21,5.79,4.19,7.92,1.98,2.13,4.47,3.73,7.46,4.8,2.99,1.07,6.37,1.6,10.13,1.6h21.63v17.82h-21.93ZM874.18,623.45h32.45c-.2-1.93-.56-3.73-1.07-5.41s-1.22-3.17-2.13-4.49c-.91-1.32-1.98-2.44-3.2-3.35s-2.64-1.62-4.27-2.13c-1.63-.51-3.4-.76-5.33-.76-2.54,0-4.8.46-6.78,1.37-1.98.91-3.63,2.13-4.95,3.65-1.32,1.52-2.36,3.25-3.12,5.18-.76,1.93-1.29,3.91-1.6,5.94Z"/>
    <path class="cls-1" d="M942.58,669.6v-17.82h37.93c1.22,0,2.31-.25,3.27-.76.96-.51,1.73-1.22,2.29-2.13.56-.91.84-1.93.84-3.05,0-1.22-.28-2.28-.84-3.2-.56-.91-1.32-1.65-2.29-2.21-.97-.56-2.06-.84-3.27-.84h-14.62c-4.98,0-9.47-.79-13.48-2.36-4.01-1.57-7.21-4.11-9.6-7.62-2.39-3.5-3.58-8.1-3.58-13.78,0-4.37,1.09-8.35,3.27-11.96,2.18-3.6,5.13-6.5,8.83-8.68,3.71-2.18,7.79-3.27,12.26-3.27h36.41v17.82h-34.42c-1.52,0-2.87.51-4.04,1.52-1.17,1.02-1.75,2.34-1.75,3.96s.56,2.97,1.68,4.04c1.12,1.07,2.49,1.6,4.11,1.6h14.62c5.58,0,10.41.84,14.47,2.51,4.06,1.68,7.21,4.29,9.44,7.84,2.23,3.56,3.35,8.22,3.35,14.01,0,4.47-1.12,8.56-3.35,12.26-2.24,3.71-5.23,6.65-8.99,8.83-3.76,2.18-7.97,3.27-12.64,3.27h-39.91Z"/>
  </g>
  <g>
    <path class="cls-1" d="M393.69,729.09h9.11v23.6h9.77v-23.6h9.11v57.97h-9.11v-26.09h-9.77v26.09h-9.11v-57.97Z"/>
    <path class="cls-1" d="M445.45,784.09c-2.37-2.54-3.56-6.13-3.56-10.77v-30.48c0-4.64,1.19-8.23,3.56-10.77,2.37-2.54,5.8-3.81,10.27-3.81s7.9,1.27,10.27,3.81c2.37,2.54,3.56,6.13,3.56,10.77v30.48c0,4.64-1.19,8.23-3.56,10.77-2.37,2.54-5.8,3.81-10.27,3.81s-7.9-1.27-10.27-3.81ZM460.44,773.9v-31.64c0-3.81-1.57-5.71-4.72-5.71s-4.72,1.91-4.72,5.71v31.64c0,3.81,1.57,5.71,4.72,5.71s4.72-1.9,4.72-5.71Z"/>
    <path class="cls-1" d="M496.88,737.38h-9.52v-8.28h28.16v8.28h-9.52v49.69h-9.11v-49.69Z"/>
    <path class="cls-1" d="M533.98,729.09h24.84v8.28h-15.74v15.32h12.51v8.28h-12.51v17.81h15.74v8.28h-24.84v-57.97Z"/>
    <path class="cls-1" d="M578.12,729.09h9.11v49.69h14.99v8.28h-24.1v-57.97Z"/>
  </g>
</svg>